<svg width="1024" height="1024" viewBox="0 0 1024 1024" fill="none" xmlns="http://www.w3.org/2000/svg">
<g clip-path="url(#clip0_16_17)">
<path fill-rule="evenodd" clip-rule="evenodd" d="M648.787 370.983L632.792 398.687C776.19 493.754 857.327 617.876 816.841 688C772.658 764.527 600.359 747.766 432 650.564C263.641 553.362 162.976 412.527 207.159 336C247.638 265.889 395.651 274.079 549.65 350.692L565.645 322.988C395.71 238.526 228.398 235.214 179.446 320C126.427 411.832 232.336 572.238 416 678.277C599.664 784.316 791.534 795.832 844.554 704C893.513 619.2 806.952 475.925 648.787 370.983Z" fill="white"/>
<path fill-rule="evenodd" clip-rule="evenodd" d="M717.726 187.577L690.013 171.577L434.013 614.982L461.726 630.982L717.726 187.577ZM413.726 714.12L386.013 698.12L306.013 836.684L333.726 852.684L413.726 714.12Z" fill="white"/>
</g>
<defs>
<clipPath id="clip0_16_17">
<rect width="768" height="768" fill="white" transform="translate(128 128)"/>
</clipPath>
</defs>
</svg>
